<svg version="1.1" xmlns="http://www.w3.org/2000/svg" viewBox="0 0 6120 1920" width="6120" height="1920">
  <!-- svg-source:excalidraw -->
  
  <defs>
    <style class="style-fonts">
      @font-face {
        font-family: "Virgil";
        src: url("https://excalidraw.com/Virgil.woff2");
      }
      @font-face {
        font-family: "Cascadia";
        src: url("https://excalidraw.com/Cascadia.woff2");
      }
      @font-face {
        font-family: "Assistant";
        src: url("https://excalidraw.com/Assistant-Regular.woff2");
      }
    </style>
    
  </defs>
  <g stroke-linecap="round"><g transform="translate(210.83054920379072 270.78243556847553) rotate(0 2849.5847253981046 -0.3912177842377673)"><path d="M0.41 0.82 C950.15 0.82, 4749.19 0.65, 5698.91 0.37 M-0.83 0.2 C948.68 -0.14, 4748.07 -1.19, 5697.83 -1.15" stroke="#1e1e1e" stroke-width="2" fill="none"></path></g></g><mask></mask><g stroke-linecap="round"><g transform="translate(211.44001447442906 1650.2865821861715) rotate(0 2849.2799927627857 -0.10946782664655075)"><path d="M0.01 0.54 C949.69 0.36, 4748.47 -0.16, 5698.4 -0.29 M-1.44 -0.22 C948.04 -0.28, 4747.23 0.99, 5697.37 1.22" stroke="#1e1e1e" stroke-width="2" fill="none"></path></g></g><mask></mask><g stroke-linecap="round" transform="translate(210 410) rotate(0 1350 100)"><path d="M32 0 C697.51 -3.44, 1363.82 -2.27, 2668 0 M32 0 C674.84 7.51, 1317.32 7.2, 2668 0 M2668 0 C2689.06 -0.89, 2699.94 10.06, 2700 32 M2668 0 C2691.58 -2.2, 2700.06 12.71, 2700 32 M2700 32 C2700.89 85.28, 2699.87 134.21, 2700 168 M2700 32 C2699.77 68.6, 2699.34 104.69, 2700 168 M2700 168 C2700.73 190.03, 2689.62 201.56, 2668 200 M2700 168 C2698.24 187.51, 2687.44 201.84, 2668 200 M2668 200 C1944.42 190.14, 1219.71 190.1, 32 200 M2668 200 C1792.21 202.01, 917.17 202.11, 32 200 M32 200 C12.3 200.25, -0.84 191.24, 0 168 M32 200 C10.28 200.54, -1.39 188.45, 0 168 M0 168 C2.15 141.21, 1.4 112.58, 0 32 M0 168 C1.06 134.54, 1.62 99.99, 0 32 M0 32 C1.32 10.3, 12.38 -1.69, 32 0 M0 32 C1 12.08, 11.62 -0.23, 32 0" stroke="#1e1e1e" stroke-width="2" fill="none"></path></g><g stroke-linecap="round" transform="translate(3210 410) rotate(0 1350 100)"><path d="M32 0 C928.85 0.35, 1826.38 -0.51, 2668 0 M32 0 C1085.82 9.15, 2138.92 9.52, 2668 0 M2668 0 C2689.51 -0.48, 2699.25 11.57, 2700 32 M2668 0 C2688.05 -0.88, 2698.4 12.62, 2700 32 M2700 32 C2700.71 76.89, 2701.78 118.52, 2700 168 M2700 32 C2700.93 71.2, 2699.93 111.39, 2700 168 M2700 168 C2698.51 188.18, 2690.12 201.14, 2668 200 M2700 168 C2701.58 188.16, 2688.97 197.94, 2668 200 M2668 200 C1748.96 203.23, 829.37 203.72, 32 200 M2668 200 C1952.22 202.62, 1237.05 202.59, 32 200 M32 200 C11.23 198.98, -1.51 189.21, 0 168 M32 200 C8.77 202.21, -0.87 187.91, 0 168 M0 168 C2.69 130.63, 0.16 93.45, 0 32 M0 168 C-0.51 114.92, -0.45 63.6, 0 32 M0 32 C-0.33 12.41, 8.72 -1.1, 32 0 M0 32 C-0.22 11.58, 12.47 0.12, 32 0" stroke="#1e1e1e" stroke-width="2" fill="none"></path></g><g transform="translate(2590 90) rotate(0 468.75 60.00000000000006)"><text x="0" y="0" font-family="Cascadia, Segoe UI Emoji" font-size="100.00000000000007px" fill="#1e1e1e" text-anchor="start" style="white-space: pre;" direction="ltr" dominant-baseline="text-before-edge">json translation</text></g><g transform="translate(1290 430) rotate(0 279.9931640625 81.92000000000002)"><text x="0" y="0" font-family="Cascadia, Segoe UI Emoji" font-size="136.53333333333336px" fill="#1e1e1e" text-anchor="start" style="white-space: pre;" direction="ltr" dominant-baseline="text-before-edge">extract</text></g><g transform="translate(4290 430) rotate(0 279.9931640625 81.92000000000002)"><text x="0" y="0" font-family="Cascadia, Segoe UI Emoji" font-size="136.53333333333336px" fill="#1e1e1e" text-anchor="start" style="white-space: pre;" direction="ltr" dominant-baseline="text-before-edge">compose</text></g><g transform="translate(5590.0234375 310) rotate(0 149.9765625 34.133333333333326)"><text x="149.9765625" y="0" font-family="Cascadia, Segoe UI Emoji" font-size="56.88888888888889px" fill="#1e1e1e" text-anchor="middle" style="white-space: pre;" direction="ltr" dominant-baseline="text-before-edge">API LAYER</text></g><g stroke-linecap="round"><g transform="translate(809.5730825241585 769) rotate(0 0.6252374033274464 -78.99999999999994)"><path d="M0 0 C0.21 -26.33, 1.04 -131.67, 1.25 -158 M0 0 C0.21 -26.33, 1.04 -131.67, 1.25 -158" stroke="#1e1e1e" stroke-width="4" fill="none"></path></g><g transform="translate(809.5730825241585 769) rotate(0 0.6252374033274464 -78.99999999999994)"><path d="M9.61 -134.44 C7.02 -141.75, 4.43 -149.05, 1.25 -158 M9.61 -134.44 C7.24 -141.13, 4.87 -147.81, 1.25 -158" stroke="#1e1e1e" stroke-width="4" fill="none"></path></g><g transform="translate(809.5730825241585 769) rotate(0 0.6252374033274464 -78.99999999999994)"><path d="M-7.49 -134.58 C-4.78 -141.84, -2.07 -149.1, 1.25 -158 M-7.49 -134.58 C-5.01 -141.22, -2.53 -147.87, 1.25 -158" stroke="#1e1e1e" stroke-width="4" fill="none"></path></g></g><mask></mask><g stroke-linecap="round"><g transform="translate(3809.4114908676665 769) rotate(0 1.5782945647924862 -78.61244298440408)"><path d="M0 0 C0.53 -26.2, 2.63 -131.02, 3.16 -157.22 M0 0 C0.53 -26.2, 2.63 -131.02, 3.16 -157.22" stroke="#1e1e1e" stroke-width="4" fill="none"></path></g><g transform="translate(3809.4114908676665 769) rotate(0 1.5782945647924862 -78.61244298440408)"><path d="M11.23 -133.57 C9.17 -139.61, 7.11 -145.65, 3.16 -157.22 M11.23 -133.57 C9.11 -139.77, 6.99 -145.98, 3.16 -157.22" stroke="#1e1e1e" stroke-width="4" fill="none"></path></g><g transform="translate(3809.4114908676665 769) rotate(0 1.5782945647924862 -78.61244298440408)"><path d="M-5.86 -133.91 C-3.56 -139.86, -1.26 -145.82, 3.16 -157.22 M-5.86 -133.91 C-3.5 -140.03, -1.13 -146.15, 3.16 -157.22" stroke="#1e1e1e" stroke-width="4" fill="none"></path></g></g><mask></mask><g stroke-linecap="round"><g transform="translate(2310.693988138997 609.372798733674) rotate(0 -0.14438808457407504 79.81360063316299)"><path d="M0 0 C-0.05 26.6, -0.24 133.02, -0.29 159.63 M0 0 C-0.05 26.6, -0.24 133.02, -0.29 159.63" stroke="#1e1e1e" stroke-width="4" fill="none"></path></g><g transform="translate(2310.693988138997 609.372798733674) rotate(0 -0.14438808457407504 79.81360063316299)"><path d="M-8.8 136.12 C-6.53 142.37, -4.27 148.62, -0.29 159.63 M-8.8 136.12 C-6.58 142.25, -4.36 148.39, -0.29 159.63" stroke="#1e1e1e" stroke-width="4" fill="none"></path></g><g transform="translate(2310.693988138997 609.372798733674) rotate(0 -0.14438808457407504 79.81360063316299)"><path d="M8.3 136.15 C6.02 142.39, 3.73 148.63, -0.29 159.63 M8.3 136.15 C6.06 142.28, 3.82 148.4, -0.29 159.63" stroke="#1e1e1e" stroke-width="4" fill="none"></path></g></g><mask></mask><g stroke-linecap="round"><g transform="translate(5311.211289347848 611) rotate(0 -0.800669016068241 79)"><path d="M0 0 C-0.27 26.33, -1.33 131.67, -1.6 158 M0 0 C-0.27 26.33, -1.33 131.67, -1.6 158" stroke="#1e1e1e" stroke-width="4" fill="none"></path></g><g transform="translate(5311.211289347848 611) rotate(0 -0.800669016068241 79)"><path d="M-9.91 134.42 C-6.73 143.46, -3.54 152.5, -1.6 158 M-9.91 134.42 C-7.81 140.38, -5.72 146.33, -1.6 158" stroke="#1e1e1e" stroke-width="4" fill="none"></path></g><g transform="translate(5311.211289347848 611) rotate(0 -0.800669016068241 79)"><path d="M7.19 134.6 C3.82 143.57, 0.45 152.54, -1.6 158 M7.19 134.6 C4.97 140.51, 2.75 146.41, -1.6 158" stroke="#1e1e1e" stroke-width="4" fill="none"></path></g></g><mask></mask><g stroke-linecap="round" transform="translate(210 770) rotate(0 600 360)"><path d="M32 0 C370 -3.9, 709.04 -4.41, 1168 0 M32 0 C341.49 -3.03, 650.01 -3.11, 1168 0 M1168 0 C1190.67 -0.14, 1198.08 12.56, 1200 32 M1168 0 C1187.56 -1.33, 1199.77 9.26, 1200 32 M1200 32 C1198.29 212.17, 1198.29 393.41, 1200 688 M1200 32 C1201.54 281.21, 1201.02 529.98, 1200 688 M1200 688 C1199.64 710.72, 1191.05 719.46, 1168 720 M1200 688 C1198.39 710.7, 1190.95 721.61, 1168 720 M1168 720 C786.1 717.82, 405.12 717.83, 32 720 M1168 720 C922.65 724.44, 677.34 724.36, 32 720 M32 720 C12.3 719.57, 0.45 710.95, 0 688 M32 720 C10.4 720.46, 0.31 707.81, 0 688 M0 688 C-2.16 505.79, -2.37 321.89, 0 32 M0 688 C1.07 429.44, 1.33 170.78, 0 32 M0 32 C-0.21 10.85, 8.69 1.16, 32 0 M0 32 C1.02 9.92, 11.2 0.75, 32 0" stroke="#1e1e1e" stroke-width="2" fill="none"></path></g><g stroke-linecap="round" transform="translate(3210 770) rotate(0 600 360)"><path d="M32 0 C333.31 -2.56, 634.11 -3.32, 1168 0 M32 0 C351.67 2.59, 671.22 2.35, 1168 0 M1168 0 C1188.22 1.24, 1199.66 10.49, 1200 32 M1168 0 C1188.33 1.96, 1201.54 11.02, 1200 32 M1200 32 C1197.88 219.54, 1197.53 405.65, 1200 688 M1200 32 C1199.95 167.09, 1200.11 301.54, 1200 688 M1200 688 C1198.29 707.77, 1189.03 721.7, 1168 720 M1200 688 C1198.8 710.53, 1187.42 719.1, 1168 720 M1168 720 C890.09 717.89, 611.72 716.73, 32 720 M1168 720 C850.51 718.07, 533.48 718.15, 32 720 M32 720 C11.8 720.58, 0.49 709.21, 0 688 M32 720 C8.6 718.35, 0.61 709.22, 0 688 M0 688 C-1.96 491.17, -2.79 294.96, 0 32 M0 688 C1.01 486.48, 0.57 285.3, 0 32 M0 32 C1.6 12.13, 11.11 1.26, 32 0 M0 32 C1.58 9.9, 8.94 0.76, 32 0" stroke="#1e1e1e" stroke-width="2" fill="none"></path></g><g stroke-linecap="round" transform="translate(1710 770) rotate(0 600 360)"><path d="M32 0 C372.01 -4.5, 712.92 -3.91, 1168 0 M32 0 C407.42 -1.28, 782.21 -1.59, 1168 0 M1168 0 C1189.42 1.24, 1199.16 10.02, 1200 32 M1168 0 C1187.98 -2.06, 1200.89 8.84, 1200 32 M1200 32 C1201.06 210.31, 1201 388.34, 1200 688 M1200 32 C1201.58 232.39, 1201.35 431.76, 1200 688 M1200 688 C1198.11 707.56, 1191.31 720.38, 1168 720 M1200 688 C1201.51 708.53, 1190.65 722.04, 1168 720 M1168 720 C788.61 718.39, 411.3 719.29, 32 720 M1168 720 C867.99 718.48, 567.33 718.37, 32 720 M32 720 C9.92 718.89, -0.03 709.38, 0 688 M32 720 C11.51 717.82, -0.33 710.79, 0 688 M0 688 C2.2 468.38, 1.74 248.27, 0 32 M0 688 C2.44 509.4, 2.07 331, 0 32 M0 32 C0.44 12.44, 9.06 -0.19, 32 0 M0 32 C0.7 10.82, 8.59 1.73, 32 0" stroke="#1e1e1e" stroke-width="2" fill="none"></path></g><g stroke-linecap="round" transform="translate(4710 770) rotate(0 600 360)"><path d="M32 0 C283.23 0.79, 532.59 0.29, 1168 0 M32 0 C406.05 0.94, 780.74 0.9, 1168 0 M1168 0 C1187.9 0.11, 1198.54 10.47, 1200 32 M1168 0 C1188.58 -0.47, 1200.2 12.92, 1200 32 M1200 32 C1200.36 250.99, 1200.46 469.61, 1200 688 M1200 32 C1199.98 247.37, 1200.38 462.53, 1200 688 M1200 688 C1201.54 709.75, 1189.73 719.8, 1168 720 M1200 688 C1200.44 709.72, 1187.71 721.32, 1168 720 M1168 720 C827.43 723.61, 487.94 723.63, 32 720 M1168 720 C718.23 721.34, 268.91 721.83, 32 720 M32 720 C10.22 720.35, -0.09 711.3, 0 688 M32 720 C12.49 718.56, -0.72 708.94, 0 688 M0 688 C-1.81 446.47, -2.85 204.19, 0 32 M0 688 C-0.75 477.18, -1.2 266.13, 0 32 M0 32 C-0.02 11.39, 9.51 1.01, 32 0 M0 32 C-1.13 8.95, 9.33 -0.94, 32 0" stroke="#1e1e1e" stroke-width="2" fill="none"></path></g><g transform="translate(1190.0092612372505 770) rotate(0 100.5615234375 41.193793402777715)"><text x="100.5615234375" y="0" font-family="Cascadia, Segoe UI Emoji" font-size="68.65632233796293px" fill="#1e1e1e" text-anchor="middle" style="white-space: pre;" direction="ltr" dominant-baseline="text-before-edge">input</text></g><g transform="translate(4190.00926123725 770) rotate(0 100.5615234375 41.193793402777715)"><text x="100.5615234375" y="0" font-family="Cascadia, Segoe UI Emoji" font-size="68.65632233796293px" fill="#1e1e1e" text-anchor="middle" style="white-space: pre;" direction="ltr" dominant-baseline="text-before-edge">input</text></g><g transform="translate(2650 770) rotate(0 120.673828125 41.193793402777715)"><text x="120.673828125" y="0" font-family="Cascadia, Segoe UI Emoji" font-size="68.65632233796293px" fill="#1e1e1e" text-anchor="middle" style="white-space: pre;" direction="ltr" dominant-baseline="text-before-edge">output</text></g><g transform="translate(5650 770) rotate(0 120.673828125 41.193793402777715)"><text x="120.673828125" y="0" font-family="Cascadia, Segoe UI Emoji" font-size="68.65632233796293px" fill="#1e1e1e" text-anchor="middle" style="white-space: pre;" direction="ltr" dominant-baseline="text-before-edge">output</text></g><g stroke-linecap="round" transform="translate(310 890) rotate(0 200 90)"><path d="M32 0 C105.35 0, 178.7 0, 368 0 M32 0 C149.2 0, 266.41 0, 368 0 M368 0 C389.33 0, 400 10.67, 400 32 M368 0 C389.33 0, 400 10.67, 400 32 M400 32 C400 69.17, 400 106.34, 400 148 M400 32 C400 61.75, 400 91.51, 400 148 M400 148 C400 169.33, 389.33 180, 368 180 M400 148 C400 169.33, 389.33 180, 368 180 M368 180 C277.16 180, 186.32 180, 32 180 M368 180 C285.52 180, 203.05 180, 32 180 M32 180 C10.67 180, 0 169.33, 0 148 M32 180 C10.67 180, 0 169.33, 0 148 M0 148 C0 116.33, 0 84.66, 0 32 M0 148 C0 119.82, 0 91.64, 0 32 M0 32 C0 10.67, 10.67 0, 32 0 M0 32 C0 10.67, 10.67 0, 32 0" stroke="#1e1e1e" stroke-width="4" fill="none"></path></g><g transform="translate(315 929.5999999999999) rotate(0 98.4375 50.39999999999998)"><text x="0" y="0" font-family="Cascadia, Segoe UI Emoji" font-size="28px" fill="#1e1e1e" text-anchor="start" style="white-space: pre;" direction="ltr" dominant-baseline="text-before-edge">data object</text><text x="0" y="33.6" font-family="Cascadia, Segoe UI Emoji" font-size="28px" fill="#1e1e1e" text-anchor="start" style="white-space: pre;" direction="ltr" dominant-baseline="text-before-edge"></text><text x="0" y="67.2" font-family="Cascadia, Segoe UI Emoji" font-size="28px" fill="#1e1e1e" text-anchor="start" style="white-space: pre;" direction="ltr" dominant-baseline="text-before-edge">json as jspo</text></g><g stroke-linecap="round" transform="translate(4810 890) rotate(0 200 90)"><path d="M32 0 C108.47 0, 184.94 0, 368 0 M32 0 C158.13 0, 284.27 0, 368 0 M368 0 C389.33 0, 400 10.67, 400 32 M368 0 C389.33 0, 400 10.67, 400 32 M400 32 C400 67.6, 400 103.2, 400 148 M400 32 C400 60.01, 400 88.01, 400 148 M400 148 C400 169.33, 389.33 180, 368 180 M400 148 C400 169.33, 389.33 180, 368 180 M368 180 C245.48 180, 122.97 180, 32 180 M368 180 C244.2 180, 120.4 180, 32 180 M32 180 C10.67 180, 0 169.33, 0 148 M32 180 C10.67 180, 0 169.33, 0 148 M0 148 C0 107.57, 0 67.14, 0 32 M0 148 C0 113.65, 0 79.31, 0 32 M0 32 C0 10.67, 10.67 0, 32 0 M0 32 C0 10.67, 10.67 0, 32 0" stroke="#1e1e1e" stroke-width="4" fill="none"></path></g><g transform="translate(4815 929.5999999999999) rotate(0 188.671875 50.39999999999998)"><text x="0" y="0" font-family="Cascadia, Segoe UI Emoji" font-size="28px" fill="#1e1e1e" text-anchor="start" style="white-space: pre;" direction="ltr" dominant-baseline="text-before-edge">data object</text><text x="0" y="33.6" font-family="Cascadia, Segoe UI Emoji" font-size="28px" fill="#1e1e1e" text-anchor="start" style="white-space: pre;" direction="ltr" dominant-baseline="text-before-edge"></text><text x="0" y="67.2" font-family="Cascadia, Segoe UI Emoji" font-size="28px" fill="#1e1e1e" text-anchor="start" style="white-space: pre;" direction="ltr" dominant-baseline="text-before-edge">translated json as jspo</text></g><g stroke-linecap="round" transform="translate(1810 890) rotate(0 200 91.5)"><path d="M32 0 C138.16 0, 244.32 0, 368 0 M32 0 C157.25 0, 282.5 0, 368 0 M368 0 C389.33 0, 400 10.67, 400 32 M368 0 C389.33 0, 400 10.67, 400 32 M400 32 C400 76.07, 400 120.15, 400 151 M400 32 C400 68.66, 400 105.32, 400 151 M400 151 C400 172.33, 389.33 183, 368 183 M400 151 C400 172.33, 389.33 183, 368 183 M368 183 C251.39 183, 134.77 183, 32 183 M368 183 C243.47 183, 118.94 183, 32 183 M32 183 C10.67 183, 0 172.33, 0 151 M32 183 C10.67 183, 0 172.33, 0 151 M0 151 C0 116.22, 0 81.44, 0 32 M0 151 C0 124.03, 0 97.07, 0 32 M0 32 C0 10.67, 10.67 0, 32 0 M0 32 C0 10.67, 10.67 0, 32 0" stroke="#1e1e1e" stroke-width="4" fill="none"></path></g><g transform="translate(1815 914.3) rotate(0 188.671875 67.20000000000005)"><text x="0" y="0" font-family="Cascadia, Segoe UI Emoji" font-size="28px" fill="#1e1e1e" text-anchor="start" style="white-space: pre;" direction="ltr" dominant-baseline="text-before-edge">skeletons array&lt;string&gt;</text><text x="0" y="33.6" font-family="Cascadia, Segoe UI Emoji" font-size="28px" fill="#1e1e1e" text-anchor="start" style="white-space: pre;" direction="ltr" dominant-baseline="text-before-edge"></text><text x="0" y="67.2" font-family="Cascadia, Segoe UI Emoji" font-size="28px" fill="#1e1e1e" text-anchor="start" style="white-space: pre;" direction="ltr" dominant-baseline="text-before-edge">array of skeleton </text><text x="0" y="100.80000000000001" font-family="Cascadia, Segoe UI Emoji" font-size="28px" fill="#1e1e1e" text-anchor="start" style="white-space: pre;" direction="ltr" dominant-baseline="text-before-edge">strings</text></g><g stroke-linecap="round" transform="translate(3310 890) rotate(0 200 91.5)"><path d="M32 0 C143.62 0, 255.24 0, 368 0 M32 0 C121.96 0, 211.92 0, 368 0 M368 0 C389.33 0, 400 10.67, 400 32 M368 0 C389.33 0, 400 10.67, 400 32 M400 32 C400 66.13, 400 100.27, 400 151 M400 32 C400 76.51, 400 121.02, 400 151 M400 151 C400 172.33, 389.33 183, 368 183 M400 151 C400 172.33, 389.33 183, 368 183 M368 183 C249.98 183, 131.96 183, 32 183 M368 183 C267.93 183, 167.86 183, 32 183 M32 183 C10.67 183, 0 172.33, 0 151 M32 183 C10.67 183, 0 172.33, 0 151 M0 151 C0 115.44, 0 79.88, 0 32 M0 151 C0 109.24, 0 67.48, 0 32 M0 32 C0 10.67, 10.67 0, 32 0 M0 32 C0 10.67, 10.67 0, 32 0" stroke="#1e1e1e" stroke-width="4" fill="none"></path></g><g transform="translate(3315 914.3) rotate(0 188.671875 67.20000000000005)"><text x="0" y="0" font-family="Cascadia, Segoe UI Emoji" font-size="28px" fill="#1e1e1e" text-anchor="start" style="white-space: pre;" direction="ltr" dominant-baseline="text-before-edge">skeletons array&lt;string&gt;</text><text x="0" y="33.6" font-family="Cascadia, Segoe UI Emoji" font-size="28px" fill="#1e1e1e" text-anchor="start" style="white-space: pre;" direction="ltr" dominant-baseline="text-before-edge"></text><text x="0" y="67.2" font-family="Cascadia, Segoe UI Emoji" font-size="28px" fill="#1e1e1e" text-anchor="start" style="white-space: pre;" direction="ltr" dominant-baseline="text-before-edge">array of skeleton </text><text x="0" y="100.80000000000001" font-family="Cascadia, Segoe UI Emoji" font-size="28px" fill="#1e1e1e" text-anchor="start" style="white-space: pre;" direction="ltr" dominant-baseline="text-before-edge">strings</text></g><g stroke-linecap="round" transform="translate(310 1170) rotate(0 200 100)"><path d="M32 0 C162.87 0, 293.73 0, 368 0 M32 0 C131.17 0, 230.34 0, 368 0 M368 0 C389.33 0, 400 10.67, 400 32 M368 0 C389.33 0, 400 10.67, 400 32 M400 32 C400 83.57, 400 135.13, 400 168 M400 32 C400 69.8, 400 107.6, 400 168 M400 168 C400 189.33, 389.33 200, 368 200 M400 168 C400 189.33, 389.33 200, 368 200 M368 200 C259.46 200, 150.92 200, 32 200 M368 200 C297.12 200, 226.25 200, 32 200 M32 200 C10.67 200, 0 189.33, 0 168 M32 200 C10.67 200, 0 189.33, 0 168 M0 168 C0 138.28, 0 108.56, 0 32 M0 168 C0 128.5, 0 89.01, 0 32 M0 32 C0 10.67, 10.67 0, 32 0 M0 32 C0 10.67, 10.67 0, 32 0" stroke="#1e1e1e" stroke-width="4" fill="none"></path></g><g transform="translate(315 1219.6) rotate(0 155.859375 50.39999999999998)"><text x="0" y="0" font-family="Cascadia, Segoe UI Emoji" font-size="28px" fill="#1e1e1e" text-anchor="start" style="white-space: pre;" direction="ltr" dominant-baseline="text-before-edge">schema object</text><text x="0" y="33.6" font-family="Cascadia, Segoe UI Emoji" font-size="28px" fill="#1e1e1e" text-anchor="start" style="white-space: pre;" direction="ltr" dominant-baseline="text-before-edge"></text><text x="0" y="67.2" font-family="Cascadia, Segoe UI Emoji" font-size="28px" fill="#1e1e1e" text-anchor="start" style="white-space: pre;" direction="ltr" dominant-baseline="text-before-edge">json schema as jspo</text></g><g stroke-linecap="round" transform="translate(3810 890) rotate(0 200 90)"><path d="M32 0 C146.73 0, 261.45 0, 368 0 M32 0 C146.29 0, 260.58 0, 368 0 M368 0 C389.33 0, 400 10.67, 400 32 M368 0 C389.33 0, 400 10.67, 400 32 M400 32 C400 57.86, 400 83.71, 400 148 M400 32 C400 68.55, 400 105.1, 400 148 M400 148 C400 169.33, 389.33 180, 368 180 M400 148 C400 169.33, 389.33 180, 368 180 M368 180 C279.73 180, 191.45 180, 32 180 M368 180 C249.3 180, 130.61 180, 32 180 M32 180 C10.67 180, 0 169.33, 0 148 M32 180 C10.67 180, 0 169.33, 0 148 M0 148 C0 102.65, 0 57.3, 0 32 M0 148 C0 124.39, 0 100.77, 0 32 M0 32 C0 10.67, 10.67 0, 32 0 M0 32 C0 10.67, 10.67 0, 32 0" stroke="#1e1e1e" stroke-width="4" fill="none"></path></g><g transform="translate(3815 929.5999999999999) rotate(0 155.859375 50.39999999999998)"><text x="0" y="0" font-family="Cascadia, Segoe UI Emoji" font-size="28px" fill="#1e1e1e" text-anchor="start" style="white-space: pre;" direction="ltr" dominant-baseline="text-before-edge">schema object</text><text x="0" y="33.6" font-family="Cascadia, Segoe UI Emoji" font-size="28px" fill="#1e1e1e" text-anchor="start" style="white-space: pre;" direction="ltr" dominant-baseline="text-before-edge"></text><text x="0" y="67.2" font-family="Cascadia, Segoe UI Emoji" font-size="28px" fill="#1e1e1e" text-anchor="start" style="white-space: pre;" direction="ltr" dominant-baseline="text-before-edge">json schema as jspo</text></g><g stroke-linecap="round" transform="translate(1810 1170) rotate(0 200 100)"><path d="M32 0 C110.22 0, 188.44 0, 368 0 M32 0 C158.11 0, 284.22 0, 368 0 M368 0 C389.33 0, 400 10.67, 400 32 M368 0 C389.33 0, 400 10.67, 400 32 M400 32 C400 67.52, 400 103.04, 400 168 M400 32 C400 71.03, 400 110.06, 400 168 M400 168 C400 189.33, 389.33 200, 368 200 M400 168 C400 189.33, 389.33 200, 368 200 M368 200 C289.72 200, 211.44 200, 32 200 M368 200 C292.96 200, 217.92 200, 32 200 M32 200 C10.67 200, 0 189.33, 0 168 M32 200 C10.67 200, 0 189.33, 0 168 M0 168 C0 129.45, 0 90.91, 0 32 M0 168 C0 132.21, 0 96.42, 0 32 M0 32 C0 10.67, 10.67 0, 32 0 M0 32 C0 10.67, 10.67 0, 32 0" stroke="#1e1e1e" stroke-width="4" fill="none"></path></g><g transform="translate(1815 1219.6) rotate(0 180.46875 50.39999999999998)"><text x="0" y="0" font-family="Cascadia, Segoe UI Emoji" font-size="28px" fill="#1e1e1e" text-anchor="start" style="white-space: pre;" direction="ltr" dominant-baseline="text-before-edge">xliffs array&lt;string&gt;</text><text x="0" y="33.6" font-family="Cascadia, Segoe UI Emoji" font-size="28px" fill="#1e1e1e" text-anchor="start" style="white-space: pre;" direction="ltr" dominant-baseline="text-before-edge"></text><text x="0" y="67.2" font-family="Cascadia, Segoe UI Emoji" font-size="28px" fill="#1e1e1e" text-anchor="start" style="white-space: pre;" direction="ltr" dominant-baseline="text-before-edge">array of xliff strings</text></g><g stroke-linecap="round" transform="translate(3310 1170) rotate(0 200 100)"><path d="M32 0 C154.83 0, 277.67 0, 368 0 M32 0 C125.33 0, 218.67 0, 368 0 M368 0 C389.33 0, 400 10.67, 400 32 M368 0 C389.33 0, 400 10.67, 400 32 M400 32 C400 84.22, 400 136.44, 400 168 M400 32 C400 84.32, 400 136.65, 400 168 M400 168 C400 189.33, 389.33 200, 368 200 M400 168 C400 189.33, 389.33 200, 368 200 M368 200 C265.09 200, 162.18 200, 32 200 M368 200 C270.76 200, 173.52 200, 32 200 M32 200 C10.67 200, 0 189.33, 0 168 M32 200 C10.67 200, 0 189.33, 0 168 M0 168 C0 128.93, 0 89.87, 0 32 M0 168 C0 127.79, 0 87.57, 0 32 M0 32 C0 10.67, 10.67 0, 32 0 M0 32 C0 10.67, 10.67 0, 32 0" stroke="#1e1e1e" stroke-width="4" fill="none"></path></g><g transform="translate(3315 1219.6) rotate(0 180.46875 50.39999999999998)"><text x="0" y="0" font-family="Cascadia, Segoe UI Emoji" font-size="28px" fill="#1e1e1e" text-anchor="start" style="white-space: pre;" direction="ltr" dominant-baseline="text-before-edge">xliffs array&lt;string&gt;</text><text x="0" y="33.6" font-family="Cascadia, Segoe UI Emoji" font-size="28px" fill="#1e1e1e" text-anchor="start" style="white-space: pre;" direction="ltr" dominant-baseline="text-before-edge"></text><text x="0" y="67.2" font-family="Cascadia, Segoe UI Emoji" font-size="28px" fill="#1e1e1e" text-anchor="start" style="white-space: pre;" direction="ltr" dominant-baseline="text-before-edge">array of xliff strings</text></g><g transform="translate(630 1550) rotate(0 937.40625 20)"><text x="0" y="0" font-family="Cascadia, Segoe UI Emoji" font-size="33.33333333333343px" fill="#1e1e1e" text-anchor="start" style="white-space: pre;" direction="ltr" dominant-baseline="text-before-edge">extract - api for extracting &lt;skeletons&gt; and &lt;xliffs&gt; files from &lt;JSON data&gt; using &lt;JSON Schema&gt;</text></g><g transform="translate(3770 1550) rotate(0 781.171875 20)"><text x="0" y="0" font-family="Cascadia, Segoe UI Emoji" font-size="33.33333333333343px" fill="#1e1e1e" text-anchor="start" style="white-space: pre;" direction="ltr" dominant-baseline="text-before-edge">compose - api for composing &lt;skeletons&gt; and &lt;xliffs&gt; into translated &lt;JSON data&gt;</text></g><g stroke-linecap="round" transform="translate(10 10) rotate(0 3050 950)"><path d="M32 0 C1932.26 0, 3832.52 0, 6068 0 M32 0 C2412.5 0, 4793 0, 6068 0 M6068 0 C6089.33 0, 6100 10.67, 6100 32 M6068 0 C6089.33 0, 6100 10.67, 6100 32 M6100 32 C6100 763.65, 6100 1495.3, 6100 1868 M6100 32 C6100 512.99, 6100 993.97, 6100 1868 M6100 1868 C6100 1889.33, 6089.33 1900, 6068 1900 M6100 1868 C6100 1889.33, 6089.33 1900, 6068 1900 M6068 1900 C4815.22 1900, 3562.43 1900, 32 1900 M6068 1900 C4714.56 1900, 3361.13 1900, 32 1900 M32 1900 C10.67 1900, 0 1889.33, 0 1868 M32 1900 C10.67 1900, 0 1889.33, 0 1868 M0 1868 C0 1252.19, 0 636.39, 0 32 M0 1868 C0 1410.77, 0 953.54, 0 32 M0 32 C0 10.67, 10.67 0, 32 0 M0 32 C0 10.67, 10.67 0, 32 0" stroke="#1e1e1e" stroke-width="4" fill="none"></path></g></svg>